<svg width="24" height="24" viewBox="0 0 24 24" fill="none" xmlns="http://www.w3.org/2000/svg">
<path d="M5.02483 10.3C4.86181 10.4637 4.76052 10.6789 4.73816 10.9088C4.7158 11.1388 4.77377 11.3694 4.9022 11.5615C5.03064 11.7535 5.22161 11.8952 5.44268 11.9624C5.66374 12.0295 5.90125 12.0181 6.11483 11.93C6.23636 11.8756 6.34791 11.8013 6.44483 11.71C6.53478 11.6178 6.60609 11.5092 6.65483 11.39C6.712 11.2682 6.73942 11.1345 6.73483 11C6.73373 10.7377 6.62958 10.4863 6.44483 10.3C6.35187 10.2063 6.24127 10.1319 6.11941 10.0811C5.99755 10.0303 5.86684 10.0042 5.73483 10.0042C5.60282 10.0042 5.47212 10.0303 5.35026 10.0811C5.2284 10.1319 5.1178 10.2063 5.02483 10.3ZM5.73483 5C6.00005 5 6.2544 5.10536 6.44194 5.29289C6.62948 5.48043 6.73483 5.73478 6.73483 6C6.73483 6.26522 6.62948 6.51957 6.44194 6.70711C6.2544 6.89464 6.00005 7 5.73483 7C5.46962 7 5.21526 7.10536 5.02773 7.29289C4.84019 7.48043 4.73483 7.73478 4.73483 8C4.73483 8.26522 4.84019 8.51957 5.02773 8.70711C5.21526 8.89464 5.46962 9 5.73483 9C6.26136 8.99966 6.77853 8.86075 7.23437 8.59723C7.69021 8.33371 8.06866 7.95486 8.33171 7.49875C8.59475 7.04264 8.73312 6.52533 8.73291 5.9988C8.7327 5.47227 8.59391 4.95507 8.3305 4.49917C8.06709 4.04326 7.68833 3.66472 7.23228 3.40156C6.77623 3.13841 6.25896 2.99992 5.73243 3C5.2059 3.00008 4.68867 3.13874 4.2327 3.40204C3.77673 3.66534 3.3981 4.04401 3.13483 4.5C3.06871 4.61413 3.02583 4.74022 3.00864 4.871C2.99146 5.00178 3.00032 5.13466 3.03471 5.262C3.0691 5.38934 3.12835 5.50862 3.20903 5.61297C3.28971 5.71732 3.39025 5.80467 3.50483 5.87C3.73445 6.00037 4.00631 6.03464 4.2611 5.96532C4.51588 5.896 4.73291 5.72873 4.86483 5.5C4.95294 5.34739 5.0798 5.22078 5.23258 5.13298C5.38536 5.04517 5.55862 4.9993 5.73483 5ZM17.7348 6H11.7348C11.4696 6 11.2153 6.10536 11.0277 6.29289C10.8402 6.48043 10.7348 6.73478 10.7348 7C10.7348 7.26522 10.8402 7.51957 11.0277 7.70711C11.2153 7.89464 11.4696 8 11.7348 8H17.7348C18 8 18.2544 8.10536 18.4419 8.29289C18.6295 8.48043 18.7348 8.73478 18.7348 9V18.72L17.1648 17.27C16.9804 17.0973 16.7375 17.0009 16.4848 17H7.73483C7.46962 17 7.21526 16.8946 7.02773 16.7071C6.84019 16.5196 6.73483 16.2652 6.73483 16V15C6.73483 14.7348 6.62948 14.4804 6.44194 14.2929C6.2544 14.1054 6.00005 14 5.73483 14C5.46962 14 5.21526 14.1054 5.02773 14.2929C4.84019 14.4804 4.73483 14.7348 4.73483 15V16C4.73483 16.7956 5.0509 17.5587 5.61351 18.1213C6.17612 18.6839 6.93918 19 7.73483 19H16.0948L19.0948 21.73C19.2691 21.8936 19.4961 21.9894 19.7348 22C19.872 21.9985 20.0077 21.9714 20.1348 21.92C20.3137 21.8419 20.4658 21.7132 20.5724 21.5497C20.6791 21.3863 20.7355 21.1952 20.7348 21V9C20.7348 8.20435 20.4188 7.44129 19.8562 6.87868C19.2935 6.31607 18.5305 6 17.7348 6Z" fill="black"/>
<circle cx="18" cy="6" r="4" fill="#EA2A2A" stroke="white" stroke-width="2"/>
</svg>
