<svg width="172" height="172" viewBox="0 0 172 172" fill="none" xmlns="http://www.w3.org/2000/svg">
<g opacity="0.4" clip-path="url(#clip0_479_1419)">
<path d="M77.6667 125C79.5674 125 81.3903 124.245 82.7343 122.901C84.0783 121.557 84.8333 119.734 84.8333 117.833V74.8334C84.8333 72.9327 84.0783 71.1098 82.7343 69.7658C81.3903 68.4218 79.5674 67.6667 77.6667 67.6667C75.7659 67.6667 73.9431 68.4218 72.5991 69.7658C71.2551 71.1098 70.5 72.9327 70.5 74.8334V117.833C70.5 119.734 71.2551 121.557 72.5991 122.901C73.9431 124.245 75.7659 125 77.6667 125ZM149.333 39H120.667V31.8334C120.667 26.1312 118.401 20.6626 114.369 16.6306C110.337 12.5985 104.869 10.3334 99.1667 10.3334H84.8333C79.1312 10.3334 73.6626 12.5985 69.6305 16.6306C65.5985 20.6626 63.3333 26.1312 63.3333 31.8334V39H34.6667C32.7659 39 30.9431 39.7551 29.5991 41.0991C28.2551 42.4431 27.5 44.266 27.5 46.1667C27.5 48.0674 28.2551 49.8903 29.5991 51.2343C30.9431 52.5783 32.7659 53.3334 34.6667 53.3334H41.8333V132.167C41.8333 137.869 44.0985 143.337 48.1305 147.37C52.1626 151.402 57.6312 153.667 63.3333 153.667H120.667C126.369 153.667 131.837 151.402 135.869 147.37C139.901 143.337 142.167 137.869 142.167 132.167V53.3334H149.333C151.234 53.3334 153.057 52.5783 154.401 51.2343C155.745 49.8903 156.5 48.0674 156.5 46.1667C156.5 44.266 155.745 42.4431 154.401 41.0991C153.057 39.7551 151.234 39 149.333 39ZM77.6667 31.8334C77.6667 29.9327 78.4217 28.1098 79.7657 26.7658C81.1097 25.4218 82.9326 24.6667 84.8333 24.6667H99.1667C101.067 24.6667 102.89 25.4218 104.234 26.7658C105.578 28.1098 106.333 29.9327 106.333 31.8334V39H77.6667V31.8334ZM127.833 132.167C127.833 134.067 127.078 135.89 125.734 137.234C124.39 138.578 122.567 139.333 120.667 139.333H63.3333C61.4326 139.333 59.6097 138.578 58.2657 137.234C56.9217 135.89 56.1667 134.067 56.1667 132.167V53.3334H127.833V132.167ZM106.333 125C108.234 125 110.057 124.245 111.401 122.901C112.745 121.557 113.5 119.734 113.5 117.833V74.8334C113.5 72.9327 112.745 71.1098 111.401 69.7658C110.057 68.4218 108.234 67.6667 106.333 67.6667C104.433 67.6667 102.61 68.4218 101.266 69.7658C99.9217 71.1098 99.1667 72.9327 99.1667 74.8334V117.833C99.1667 119.734 99.9217 121.557 101.266 122.901C102.61 124.245 104.433 125 106.333 125Z" fill="#BBC5E6"/>
</g>
<defs>
<clipPath id="clip0_479_1419">
<rect width="172" height="172" fill="white"/>
</clipPath>
</defs>
</svg>
