<svg width="24" height="24" viewBox="0 0 24 24" fill="none" xmlns="http://www.w3.org/2000/svg">
<path d="M11.0269 6.40994C11.2722 6.40994 11.5175 6.31632 11.7047 6.12909C12.0792 5.75462 12.0792 5.14797 11.7047 4.7735C9.08812 2.15688 4.83131 2.15688 2.21469 4.7735C1.84022 5.14797 1.84022 5.75462 2.21469 6.12909C2.58916 6.50356 3.19581 6.50356 3.57028 6.12909C5.43889 4.26047 8.48054 4.26047 10.3492 6.12909C10.5364 6.31632 10.7817 6.40994 11.0269 6.40994Z" fill="#2949B0"/>
<path d="M4.36704 6.80832C3.99256 7.18279 3.99256 7.78944 4.36704 8.16391C4.74151 8.53838 5.34815 8.53838 5.72262 8.16391C6.47063 7.41684 7.68579 7.41684 8.4338 8.16391C8.62103 8.35114 8.86631 8.44476 9.11159 8.44476C9.35687 8.44476 9.60215 8.35114 9.78939 8.16391C10.1639 7.78944 10.1639 7.18279 9.78939 6.80832C8.29431 5.31324 5.86211 5.31324 4.36704 6.80832Z" fill="#2949B0"/>
<path d="M14.6157 6H13.6254C13.2666 5.81882 13.0205 5.44688 13.0205 5.01748C13.0205 4.55824 13.3019 4.16473 13.7017 4H14.5393H18C20.2 4 22 5.8 22 8V11.3C22.6 11.6 23 12.3 23 13V19C23 20.1 22.1 21 21 21H18C16.9 21 16 20.1 16 19V18H13V19H14C14.6 19 15 19.4 15 20C15 20.6 14.6 21 14 21H10C9.4 21 9 20.6 9 20C9 19.4 9.4 19 10 19H11V18H6C3.8 18 2 16.2 2 14V10.5385V9.65347C2.17032 9.26632 2.55727 8.99599 3.00737 8.99599C3.44492 8.99599 3.82281 9.25147 4 9.6214V10.5706V14C4 15.1 4.9 16 6 16H16V13C16 11.9 16.9 11 18 11H20V8C20 6.9 19.1 6 18 6H14.6157ZM21 19H18V13H21V19Z" fill="#2949B0"/>
</svg>
